PathFileType	4	(X/Y/Z)	C:\Users\ebm\Documents\Erivelton\Erivelton2\wc6.trc
DataRate	CameraRate	NumFrames	NumMarkers	Units	OrigDataRate	OrigDataStartFrame	OrigNumFrames
150.00	150.00	      10	28	mm	150.00	722	      1154
Frame#	Time	IJ			PX			C7			T8			RAC			RAS			RPS			RAI			RPI			RLE			RME			RRS			RUS			R3M			R5M			LAC			LAS			LPS			LAI			LPI			LLE			LME			LRS			LUS			L3M			L5M			RW			LW			V_mid_elbow_r			V_mid_elbow_l			V_mid_wrist_r			V_mid_wrist_l			V_mid_trunk_low			V_mid_trunk_upp			
		X1	Y1	Z1	X2	Y2	Z2	X3	Y3	Z3	X4	Y4	Z4	X5	Y5	Z5	X6	Y6	Z6	X7	Y7	Z7	X8	Y8	Z8	X9	Y9	Z9	X10	Y10	Z10	X11	Y11	Z11	X12	Y12	Z12	X13	Y13	Z13	X14	Y14	Z14	X15	Y15	Z15	X16	Y16	Z16	X17	Y17	Z17	X18	Y18	Z18	X19	Y19	Z19	X20	Y20	Z20	X21	Y21	Z21	X22	Y22	Z22	X23	Y23	Z23	X24	Y24	Z24	X25	Y25	Z25	X26	Y26	Z26	X27	Y27	Z27	X28	Y28	Z28	

722	4.807	1559.70178	986.65948	-56.36340	1515.32727	821.20868	-43.91153	1466.21289	1118.13940	-73.95483	1345.22253	1002.98657	-67.07857	1511.10608	1032.07825	141.69034	1536.78333	842.55969	189.86261	1489.96680	846.38470	208.16797	1545.69116	766.99365	208.57193	1495.08960	767.75928	227.36676	1506.79077	707.19781	234.14037	1476.99878	686.36731	162.81198	1647.91064	467.75858	253.28568	1599.18433	474.90552	287.59415	1627.20801	387.26627	297.36356	1589.84106	396.72647	303.62595	1533.77612	1017.22028	-249.02097	1527.72437	853.76453	-318.14813	1479.32532	851.36340	-320.97617	1538.54663	775.37158	-335.72403	1484.36902	769.31714	-338.13126	1526.64685	692.08838	-357.46796	1478.31714	674.46948	-299.83002	1663.52722	455.18567	-356.31598	1614.13635	447.71649	-397.62030	1643.74390	368.31897	-399.14862	1606.52686	386.33737	-407.50113	1358.31152	297.93259	258.15930	1368.69812	299.14828	-370.94955	
723	4.813	1570.28687	986.74420	-56.53658	1526.40063	821.02374	-44.27063	1476.32788	1118.05432	-73.95650	1355.72327	1002.75513	-66.93465	1521.58350	1032.21570	141.63675	1547.65613	842.68231	189.22609	1500.84473	846.34924	207.61473	1556.87585	767.23389	208.04121	1506.44958	767.67523	226.74144	1517.88892	707.41003	233.53456	1489.21594	686.41382	161.83832	1661.11804	469.76392	253.61084	1612.30420	477.52914	287.57095	1641.50732	389.49881	298.89926	1604.88843	399.28833	305.46381	1543.80310	1017.75769	-249.15266	1538.00391	854.23749	-318.18668	1489.58716	851.51215	-321.04718	1549.27039	775.88123	-335.75830	1495.03320	769.43738	-338.21078	1537.73975	692.49774	-357.55182	1489.63293	674.78516	-300.04013	1676.95752	457.05194	-355.72705	1627.79102	449.39676	-397.28806	1658.25159	370.27469	-398.98834	1621.27466	388.30304	-407.71503	1369.18176	297.86554	257.99121	1379.79773	299.15298	-370.84537	
724	4.820	1580.76123	987.05695	-56.80945	1537.26538	821.07343	-44.66760	1486.47083	1118.22156	-73.99348	1366.22717	1002.71313	-66.76015	1532.13538	1032.50500	141.44318	1557.90308	843.02039	189.12706	1511.08594	846.56219	207.47792	1567.33936	767.63855	208.10287	1516.98242	768.03113	226.88515	1528.25964	707.84723	233.80273	1500.15002	686.55817	162.08449	1673.82776	471.83890	253.65215	1624.78064	479.44958	287.44766	1656.16235	392.04263	299.72815	1619.84460	402.00626	306.36697	1553.43237	1018.35822	-249.49718	1547.75745	854.78204	-318.82755	1499.41626	852.00092	-321.49127	1559.34680	776.61603	-336.45667	1505.26489	769.98187	-338.73898	1548.13843	692.98492	-358.33157	1500.32898	675.16858	-300.83588	1690.02283	459.31436	-355.42126	1641.17175	451.23282	-397.08493	1672.83081	372.47311	-398.65506	1635.81396	390.07843	-407.42206	1380.12085	298.15158	258.17505	1390.94446	299.06360	-370.69244	
725	4.827	1591.38977	987.55115	-57.16766	1548.21509	821.32605	-45.26540	1496.67053	1118.49451	-74.04958	1376.73511	1002.86517	-66.52123	1542.74744	1032.92505	141.18837	1567.74304	843.58972	189.58919	1520.88672	847.19751	207.72427	1577.22876	768.32806	208.98314	1526.83130	768.76160	227.71021	1538.25488	708.46844	234.82831	1509.87805	686.90308	163.51906	1686.20740	474.15173	253.66081	1636.63684	480.76740	286.88498	1670.78503	394.78680	299.99130	1634.56641	404.43939	306.19901	1562.85620	1019.02667	-250.02873	1557.24133	855.82538	-319.60934	1508.85059	852.71307	-322.19409	1569.07837	777.63495	-337.54517	1514.95349	770.76520	-339.76212	1557.94324	693.69312	-359.70370	1510.26831	675.73755	-302.33765	1703.18835	461.95285	-355.29062	1654.44519	452.93021	-396.83545	1687.27795	375.03046	-398.43015	1650.29199	392.23431	-407.10770	1391.21021	298.14432	258.41864	1402.22363	299.02606	-370.61517	
726	4.833	1601.89319	988.13208	-57.60628	1559.00342	821.85315	-45.79535	1506.76550	1118.99463	-74.14011	1387.27368	1003.14648	-66.36611	1553.21362	1033.52893	140.99594	1577.35327	844.39392	190.44160	1530.26941	848.09253	208.37482	1586.70020	769.21899	210.35355	1536.24719	769.86688	229.03467	1547.83862	709.26019	236.50793	1518.72449	687.31610	165.93378	1698.21912	476.68011	253.77681	1648.41980	482.18112	287.03363	1685.12598	397.63931	299.72348	1648.58472	406.40302	305.48718	1572.28857	1019.81104	-250.54900	1566.37476	856.82220	-320.71378	1518.03516	853.72308	-323.02774	1578.35657	778.83136	-339.06717	1524.08325	771.97046	-341.11530	1567.21729	694.64136	-361.41010	1519.77246	676.47681	-304.28061	1715.65747	465.10681	-355.07062	1667.52954	455.08081	-396.81189	1701.60718	377.72141	-397.72333	1664.67358	394.00153	-406.82007	1402.42200	298.31427	258.69479	1413.48584	299.02704	-370.49533	
727	4.840	1612.24707	988.84656	-57.98342	1569.74377	822.62878	-46.26872	1516.88940	1119.60022	-74.23368	1397.75195	1003.58905	-66.21912	1563.78613	1034.23877	140.91142	1586.65955	845.36707	191.80678	1539.46399	849.32947	209.30495	1595.78723	770.37073	212.33096	1545.21521	771.28699	230.77412	1556.90515	710.22382	238.57968	1526.74561	687.97583	168.90526	1709.71191	479.15994	253.87585	1660.14282	483.33438	287.30670	1699.09778	400.47849	299.12180	1662.14929	408.03363	304.32742	1581.59668	1020.74689	-251.13956	1575.18750	858.31036	-321.94339	1526.85315	855.02966	-324.00351	1587.15210	780.33765	-340.92450	1533.04175	773.34625	-342.67981	1576.06030	695.78076	-363.54660	1528.66833	677.45673	-306.76926	1727.98376	468.56921	-354.87198	1680.41101	457.54929	-396.89316	1715.53918	380.54059	-396.32800	1678.50940	396.22311	-406.26233	1413.87939	298.20920	258.58099	1424.85059	298.99228	-370.27423	
728	4.847	1622.55408	989.63739	-58.31816	1580.18445	823.47797	-46.83887	1527.00061	1120.28418	-74.30659	1408.14233	1004.13104	-66.13694	1574.24719	1035.12671	140.70842	1595.78333	846.56567	193.33182	1548.47375	850.88226	210.46359	1604.36804	771.64667	214.51352	1553.81458	772.97772	232.78481	1565.54468	711.38806	240.94713	1534.40369	688.96820	172.07098	1720.83887	482.15121	253.72318	1671.46277	484.74466	287.41095	1712.04700	402.93088	298.83945	1674.28418	407.79272	303.60080	1591.04224	1021.87134	-251.69475	1583.80432	859.84088	-323.25909	1534.88342	856.66522	-325.42752	1595.72937	782.04272	-342.83298	1540.94775	775.28760	-344.92554	1584.49902	697.11658	-365.91400	1537.33789	678.51294	-309.42029	1739.77100	472.30096	-354.88760	1692.67749	460.28506	-397.09164	1728.87659	383.41049	-395.32309	1691.51221	398.67111	-405.42789	1425.29492	298.40781	258.80423	1436.38367	298.95337	-370.06320	
729	4.853	1633.08398	990.56097	-58.69417	1590.61353	824.46790	-47.37849	1536.92468	1121.06213	-74.40714	1418.53174	1004.65765	-66.02237	1584.68591	1036.14014	140.51616	1604.71033	847.85120	194.88463	1557.38184	852.61609	211.82741	1612.76538	773.14557	216.83652	1562.20740	774.95117	234.96552	1573.74854	712.80365	243.52542	1541.51648	690.30615	175.42041	1731.36731	485.50946	254.18631	1682.23303	486.56671	287.95761	1725.20081	406.10544	297.70792	1686.53357	409.30688	302.94940	1600.39893	1023.12903	-252.21106	1592.25659	861.55127	-324.81042	1543.57813	858.47760	-326.42181	1603.97754	783.97382	-345.15909	1549.56702	777.11975	-346.58130	1592.65930	698.67645	-368.48361	1545.52991	679.94690	-312.26181	1750.84717	476.12314	-355.18784	1704.43530	463.16541	-397.35608	1741.51428	386.81116	-394.38974	1704.07153	401.22058	-405.21362	1436.81104	298.46484	258.85022	1447.83130	299.05164	-369.94168	
730	4.860	1643.18054	991.52100	-59.07280	1601.09412	825.46021	-47.84531	1546.82324	1121.85022	-74.43766	1428.83057	1005.17603	-65.97660	1595.01160	1037.30090	140.27997	1613.66565	849.40234	196.45050	1566.19995	854.75208	213.24234	1620.95081	774.79541	218.98264	1570.34155	777.27570	237.18710	1581.36267	714.49640	246.28276	1548.54834	691.81421	178.60313	1741.46802	488.80728	254.42865	1692.45410	488.76038	288.36591	1737.21228	409.04477	296.95218	1698.46204	411.04550	302.28433	1609.94373	1024.58594	-252.61894	1600.63318	863.57288	-326.29791	1552.10315	860.54590	-327.50638	1612.05920	786.14728	-347.54935	1557.82776	779.28644	-348.42914	1600.45203	700.53052	-371.16571	1553.42053	681.63141	-315.17584	1761.49243	480.00293	-355.77203	1715.32422	466.45850	-398.05701	1753.54089	390.55664	-393.58801	1715.90430	404.48676	-404.85849	1448.30457	298.60364	259.02252	1459.44702	299.04160	-369.66171	
731	4.867	1653.38940	992.48767	-59.40830	1611.51514	826.60010	-48.20696	1556.65686	1122.64624	-74.52662	1439.16492	1005.76019	-65.86713	1605.20752	1038.46716	140.25578	1622.42090	851.05951	197.92667	1574.84790	857.05121	214.57591	1628.69775	776.59369	221.26517	1578.25244	779.79108	239.46149	1588.63000	716.46735	249.06212	1555.23328	693.61652	181.81619	1750.84631	492.50323	255.15518	1702.30823	491.23901	288.66455	1748.73755	412.32962	296.25601	1709.88000	413.38895	302.16779	1619.47717	1026.14124	-252.88966	1609.02063	865.74329	-327.97214	1560.37146	862.82428	-328.67142	1620.06006	788.42975	-350.03397	1565.72498	781.75378	-350.45035	1608.19482	702.64429	-373.94263	1560.96997	683.60468	-318.18216	1771.45654	484.06335	-356.15564	1725.63708	469.37732	-398.55014	1765.04565	394.25909	-392.91068	1727.35303	407.24854	-404.61200	1459.67798	298.82077	259.36069	1470.96313	299.03729	-369.52066	
